<svg width="32" height="32" viewBox="0 0 32 32" fill="none" xmlns="http://www.w3.org/2000/svg">
<path fill-rule="evenodd" clip-rule="evenodd" d="M13.9836 5.05025C15.2964 3.7375 17.0769 3 18.9334 3H22.5334C23.0857 3 23.5334 3.44772 23.5334 4V8.8C23.5334 9.35228 23.0857 9.8 22.5334 9.8H18.9334C18.8803 9.8 18.8295 9.82107 18.792 9.85858C18.7544 9.89609 18.7334 9.94696 18.7334 10V12.6H22.5334C22.8413 12.6 23.1321 12.7419 23.3216 12.9846C23.5111 13.2273 23.5782 13.5438 23.5035 13.8425L22.3035 18.6425C22.1922 19.0877 21.7922 19.4 21.3334 19.4H18.7334V28C18.7334 28.5523 18.2857 29 17.7334 29H12.9334C12.3811 29 11.9334 28.5523 11.9334 28V19.4H9.33337C8.78109 19.4 8.33337 18.9523 8.33337 18.4V13.6C8.33337 13.0477 8.78109 12.6 9.33337 12.6H11.9334V10C11.9334 8.14348 12.6709 6.36301 13.9836 5.05025ZM18.9334 5C17.6073 5 16.3355 5.52678 15.3978 6.46447C14.4602 7.40215 13.9334 8.67392 13.9334 10V13.6C13.9334 14.1523 13.4857 14.6 12.9334 14.6H10.3334V17.4H12.9334C13.4857 17.4 13.9334 17.8477 13.9334 18.4V27H16.7334V18.4C16.7334 17.8477 17.1811 17.4 17.7334 17.4H20.5526L21.2526 14.6H17.7334C17.1811 14.6 16.7334 14.1523 16.7334 13.6V10C16.7334 9.41652 16.9652 8.85695 17.3777 8.44437C17.7903 8.03179 18.3499 7.8 18.9334 7.8H21.5334V5H18.9334Z" fill="white"/>
</svg>
