<svg width="32" height="32" viewBox="0 0 32 32" fill="none" xmlns="http://www.w3.org/2000/svg">
<path d="M21.3333 9.33331C21.3333 8.59693 21.9302 7.99998 22.6666 7.99998C23.403 7.99998 24 8.59693 24 9.33331C24 10.0697 23.403 10.6666 22.6666 10.6666C21.9302 10.6666 21.3333 10.0697 21.3333 9.33331Z" fill="white"/>
<path fill-rule="evenodd" clip-rule="evenodd" d="M16 9.66665C12.5022 9.66665 9.66663 12.5022 9.66663 16C9.66663 19.4978 12.5022 22.3333 16 22.3333C19.4978 22.3333 22.3333 19.4978 22.3333 16C22.3333 12.5022 19.4978 9.66665 16 9.66665ZM11.6666 16C11.6666 13.6067 13.6067 11.6666 16 11.6666C18.3932 11.6666 20.3333 13.6067 20.3333 16C20.3333 18.3932 18.3932 20.3333 16 20.3333C13.6067 20.3333 11.6666 18.3932 11.6666 16Z" fill="white"/>
<path fill-rule="evenodd" clip-rule="evenodd" d="M23.011 3.77733C18.3889 3.26075 13.6111 3.26075 8.98899 3.77733C6.30624 4.07717 4.14046 6.19052 3.82506 8.88722C3.27234 13.613 3.27234 18.387 3.82506 23.1127C4.14046 25.8094 6.30624 27.9228 8.98899 28.2226C13.6111 28.7392 18.3889 28.7392 23.011 28.2226C25.6937 27.9228 27.8595 25.8094 28.1749 23.1127C28.7276 18.387 28.7276 13.613 28.1749 8.88722C27.8595 6.19052 25.6937 4.07717 23.011 3.77733ZM9.21113 5.76496C13.6856 5.26487 18.3144 5.26487 22.7888 5.76496C24.5623 5.96317 25.9829 7.36265 26.1884 9.11956C26.7231 13.6909 26.7231 18.309 26.1884 22.8804C25.9829 24.6373 24.5623 26.0368 22.7888 26.235C18.3144 26.7351 13.6856 26.7351 9.21113 26.235C7.43766 26.0368 6.01701 24.6373 5.81152 22.8804C5.27686 18.309 5.27686 13.6909 5.81152 9.11956C6.01701 7.36265 7.43765 5.96317 9.21113 5.76496Z" fill="white"/>
</svg>
