<svg width="32" height="32" viewBox="0 0 32 32" fill="none" xmlns="http://www.w3.org/2000/svg">
<path fill-rule="evenodd" clip-rule="evenodd" d="M20.0287 4.45803C20.7065 4.34192 21.4656 4.30315 22.1799 4.42401C23.4558 4.63985 24.6342 5.23282 25.5658 6.12184C26.1747 6.13561 26.7731 6.01565 27.3026 5.84463C27.7508 5.69989 28.1293 5.52513 28.3946 5.38695C28.5265 5.31824 28.6284 5.25963 28.6946 5.21995C28.7277 5.20014 28.7517 5.18515 28.766 5.17609L28.7787 5.16801C29.1744 4.90438 29.7014 4.95569 30.0386 5.29103C30.3758 5.62645 30.4301 6.15301 30.1685 6.55021C29.8915 6.9706 29.507 7.72003 29.0763 8.55971C29.0086 8.69173 28.9397 8.82599 28.8699 8.96155C28.6229 9.4415 28.3696 9.92659 28.1334 10.3428C27.9852 10.6041 27.8266 10.8694 27.6667 11.0986V11.4637C27.6769 12.8045 27.5231 14.1384 27.211 15.436C27.0146 16.2524 26.7556 17.0546 26.4353 17.8351C25.6054 19.8573 24.3808 21.6939 22.8332 23.2375C21.2856 24.7812 19.4458 26.001 17.4215 26.8257C15.399 27.6497 13.2326 28.0628 11.0488 28.0409C7.88308 28.0436 4.78393 27.1315 2.1243 25.4143C1.73256 25.1614 1.56763 24.6713 1.72675 24.233C1.88586 23.7947 2.32679 23.5245 2.78955 23.5818C3.19003 23.6313 3.59325 23.6555 3.99678 23.6542C5.44671 23.6501 6.86903 23.3298 8.16751 22.7262C7.75478 22.5384 7.36074 22.3067 6.99253 22.0337C5.91024 21.2311 5.10503 20.1112 4.68894 18.8297C4.58081 18.4967 4.65473 18.1314 4.88382 17.8666C4.88792 17.8618 4.89206 17.8571 4.89624 17.8525C4.65154 17.6343 4.42257 17.3967 4.21177 17.1412C3.26335 15.9916 2.74111 14.5497 2.73341 13.0594L2.73338 13.0542L2.73339 12.9875C2.73339 12.633 2.92106 12.305 3.22667 12.1254C3.30414 12.0799 3.38625 12.0456 3.47071 12.0226C3.0196 11.1225 2.78501 10.1286 2.78673 9.12025C2.78619 7.97789 3.08459 6.85527 3.65227 5.86393C3.81615 5.57775 4.11059 5.39076 4.4393 5.36413C4.768 5.33749 5.0887 5.47463 5.29652 5.7307C6.57993 7.31205 8.18164 8.60572 9.99762 9.52768C10.9311 10.0016 11.9105 10.3719 12.9183 10.6338C13.4833 10.7806 14.0571 10.8934 14.6368 10.9713C14.6113 10.007 14.8017 9.04315 15.2014 8.15257C15.7876 6.84614 16.7909 5.77124 18.0539 5.09645C18.5887 4.81067 19.2988 4.58306 20.0287 4.45803ZM4.99109 14.5214C5.16395 15.0079 5.42111 15.4643 5.75452 15.8684C6.40962 16.6625 7.31888 17.2059 8.3285 17.4067C8.77821 17.4962 9.10947 17.8801 9.13217 18.338C9.15487 18.796 8.8632 19.2107 8.42453 19.3442C8.06121 19.4548 7.68897 19.5318 7.3125 19.5746C7.56127 19.8953 7.85391 20.1825 8.18379 20.4271C8.93204 20.982 9.83463 21.2898 10.766 21.3077C11.1885 21.3158 11.5604 21.5888 11.6948 21.9894C11.8292 22.3901 11.6972 22.8321 11.3651 23.0934C9.96621 24.1941 8.34861 24.9617 6.63454 25.3535C8.05519 25.8085 9.54512 26.0427 11.0522 26.0409L11.0638 26.0408C12.9839 26.0608 14.8887 25.698 16.6669 24.9735C18.4452 24.2491 20.0613 23.1775 21.4208 21.8215C22.7803 20.4655 23.856 18.8521 24.585 17.0757C24.8664 16.3901 25.0939 15.6855 25.2664 14.9683C25.5409 13.8273 25.676 12.6544 25.6668 11.4753L25.6667 11.4675V10.7609C25.6667 10.5184 25.7548 10.2842 25.9146 10.1018C26.007 9.99643 26.1686 9.75302 26.3939 9.35582C26.6081 8.97832 26.8452 8.52511 27.0917 8.0462C27.1066 8.01723 27.1216 7.98812 27.1366 7.95887C26.4972 8.09773 25.7724 8.17052 25.0126 8.08841C24.772 8.0624 24.549 7.95002 24.3849 7.7721C23.7144 7.04498 22.8215 6.56098 21.8463 6.39599C21.4136 6.32278 20.8905 6.33954 20.3663 6.42932C19.7969 6.52687 19.3012 6.69755 18.9964 6.86045C18.124 7.32654 17.431 8.069 17.0261 8.97139C16.6211 9.87377 16.5272 10.885 16.7589 11.8466C16.8328 12.1531 16.7577 12.4766 16.5564 12.7193C16.3551 12.962 16.0511 13.0955 15.7362 13.0796C14.6116 13.0227 13.499 12.8512 12.4152 12.5695C11.2686 12.2715 10.1543 11.8502 9.09224 11.311C7.52853 10.5171 6.10446 9.48101 4.87134 8.24409C4.81509 8.53157 4.78653 8.82494 4.78673 9.1202L4.78672 9.12276C4.78533 9.85705 4.96553 10.5803 5.31128 11.2281C5.65702 11.8759 6.15759 12.4281 6.7684 12.8357C7.1391 13.083 7.3014 13.5458 7.1664 13.9705C7.03139 14.3952 6.63166 14.6793 6.18619 14.6672C5.78273 14.6562 5.38265 14.6071 4.99109 14.5214Z" fill="white"/>
</svg>
