<svg width="272" height="272" viewBox="0 0 272 272" fill="none" xmlns="http://www.w3.org/2000/svg">
<path fill-rule="evenodd" clip-rule="evenodd" d="M136 20C71.935 20 20 71.935 20 136C20 200.065 71.9349 252 136 252C200.065 252 252 200.065 252 136C252 71.935 200.065 20 136 20ZM136 1.86281e-05C60.8893 1.20617e-05 -1.20617e-05 60.8893 -1.86281e-05 136C-2.51945e-05 211.111 60.8893 272 136 272C211.111 272 272 211.111 272 136C272 60.8893 211.111 2.51945e-05 136 1.86281e-05Z" fill="url(#paint0_linear_202_1639)" fill-opacity="0.3"/>
<defs>
<linearGradient id="paint0_linear_202_1639" x1="136" y1="272" x2="136" y2="1.86281e-05" gradientUnits="userSpaceOnUse">
<stop stop-color="#E56987"/>
<stop offset="1" stop-color="#A366E2"/>
</linearGradient>
</defs>
</svg>
