<svg width="40" height="40" viewBox="0 0 40 40" fill="none" xmlns="http://www.w3.org/2000/svg">
<path fill-rule="evenodd" clip-rule="evenodd" d="M20 4.83334C11.6237 4.83334 4.83331 11.6237 4.83331 20C4.83331 28.3763 11.6237 35.1667 20 35.1667C28.3763 35.1667 35.1666 28.3763 35.1666 20C35.1666 11.6237 28.3763 4.83334 20 4.83334ZM1.83331 20C1.83331 9.96684 9.96681 1.83334 20 1.83334C30.0332 1.83334 38.1666 9.96684 38.1666 20C38.1666 30.0332 30.0332 38.1667 20 38.1667C9.96681 38.1667 1.83331 30.0332 1.83331 20Z" fill="#A366E2"/>
<path fill-rule="evenodd" clip-rule="evenodd" d="M20 8.5C20.8284 8.5 21.5 9.17157 21.5 10V19.0729L27.3375 21.9917C28.0785 22.3622 28.3788 23.2632 28.0083 24.0042C27.6378 24.7451 26.7368 25.0455 25.9958 24.675L19.3292 21.3416C18.821 21.0876 18.5 20.5682 18.5 20V10C18.5 9.17157 19.1716 8.5 20 8.5Z" fill="#A366E2"/>
</svg>
