<svg width="40" height="40" viewBox="0 0 40 40" fill="none" xmlns="http://www.w3.org/2000/svg">
<path fill-rule="evenodd" clip-rule="evenodd" d="M26.1728 6.13681C23.1854 4.80569 19.8477 4.47592 16.6575 5.1967C13.4674 5.91747 10.5957 7.65017 8.47071 10.1364C6.34575 12.6226 5.08138 15.7291 4.86619 18.9926C4.651 22.256 5.4965 25.5017 7.27661 28.2454C9.05671 30.9891 11.676 33.0838 14.7439 34.2173C17.8118 35.3507 21.1639 35.462 24.3003 34.5347C27.4366 33.6074 30.1892 31.6911 32.1475 29.0716C34.1057 26.4521 35.1648 23.2697 35.1667 19.9991V18.4667C35.1667 17.6382 35.8382 16.9667 36.6667 16.9667C37.4951 16.9667 38.1667 17.6382 38.1667 18.4667V20C38.1644 23.9175 36.8959 27.7302 34.5503 30.8678C32.2047 34.0055 28.9076 36.3009 25.1509 37.4116C21.3941 38.5224 17.379 38.389 13.7043 37.0314C10.0295 35.6737 6.8921 33.1646 4.75989 29.8782C2.62768 26.5918 1.61493 22.7042 1.87269 18.7952C2.13045 14.8862 3.64491 11.1652 6.19019 8.18721C8.73547 5.20923 12.1752 3.1338 15.9964 2.27046C19.8176 1.40711 23.8155 1.8021 27.3938 3.39652C28.1505 3.73369 28.4906 4.62046 28.1535 5.37717C27.8163 6.13387 26.9295 6.47398 26.1728 6.13681Z" fill="#A366E2"/>
<path fill-rule="evenodd" clip-rule="evenodd" d="M37.7268 5.60547C38.3129 6.19096 38.3134 7.14071 37.7279 7.72679L21.0612 24.4101C20.7799 24.6917 20.3983 24.8499 20.0004 24.85C19.6024 24.8501 19.2207 24.692 18.9393 24.4107L13.9393 19.4107C13.3536 18.8249 13.3536 17.8751 13.9393 17.2893C14.5251 16.7035 15.4749 16.7035 16.0607 17.2893L19.9995 21.2281L35.6055 5.60653C36.191 5.02045 37.1407 5.01997 37.7268 5.60547Z" fill="#A366E2"/>
</svg>
