<svg width="40" height="40" viewBox="0 0 40 40" fill="none" xmlns="http://www.w3.org/2000/svg">
<path fill-rule="evenodd" clip-rule="evenodd" d="M20 3.16667C16.4196 3.16667 12.9858 4.58899 10.4541 7.12073C7.92232 9.65247 6.5 13.0862 6.5 16.6667C6.5 21.8971 9.89861 26.948 13.5889 30.8434C15.4034 32.7587 17.223 34.3261 18.5906 35.4151C19.148 35.859 19.6283 36.2218 20 36.4946C20.3717 36.2218 20.852 35.859 21.4094 35.4151C22.777 34.3261 24.5966 32.7587 26.4111 30.8434C30.1014 26.948 33.5 21.8971 33.5 16.6667C33.5 13.0862 32.0777 9.65247 29.5459 7.12073C27.0142 4.58899 23.5804 3.16667 20 3.16667ZM20 38.3333C19.1679 39.5814 19.1676 39.5812 19.1671 39.5809L19.1659 39.5801L19.1626 39.5778L19.1518 39.5706L19.1142 39.5451C19.0821 39.5234 19.0363 39.492 18.9775 39.4513C18.86 39.3699 18.6908 39.2511 18.4772 39.0969C18.0503 38.7886 17.4455 38.3382 16.7219 37.762C15.277 36.6114 13.3466 34.9497 11.4111 32.9066C7.60139 28.8853 3.5 23.1029 3.5 16.6667C3.5 12.2906 5.23839 8.09376 8.33274 4.99941C11.4271 1.90506 15.6239 0.166672 20 0.166672C24.3761 0.166672 28.5729 1.90506 31.6673 4.99941C34.7616 8.09376 36.5 12.2906 36.5 16.6667C36.5 23.1029 32.3986 28.8853 28.5889 32.9066C26.6534 34.9497 24.723 36.6114 23.2781 37.762C22.5545 38.3382 21.9496 38.7886 21.5228 39.0969C21.3092 39.2511 21.14 39.3699 21.0225 39.4513C20.9637 39.492 20.9179 39.5234 20.8858 39.5451L20.8482 39.5706L20.8374 39.5778L20.8341 39.5801L20.8329 39.5809C20.8324 39.5812 20.8321 39.5814 20 38.3333ZM20 38.3333L20.8321 39.5814C20.3282 39.9173 19.6718 39.9173 19.1679 39.5814L20 38.3333Z" fill="#A366E2"/>
<path fill-rule="evenodd" clip-rule="evenodd" d="M20 13.1667C18.067 13.1667 16.5 14.7337 16.5 16.6667C16.5 18.5997 18.067 20.1667 20 20.1667C21.933 20.1667 23.5 18.5997 23.5 16.6667C23.5 14.7337 21.933 13.1667 20 13.1667ZM13.5 16.6667C13.5 13.0768 16.4101 10.1667 20 10.1667C23.5899 10.1667 26.5 13.0768 26.5 16.6667C26.5 20.2565 23.5899 23.1667 20 23.1667C16.4101 23.1667 13.5 20.2565 13.5 16.6667Z" fill="#A366E2"/>
</svg>
