<svg width="60" height="60" viewBox="0 0 60 60" fill="none" xmlns="http://www.w3.org/2000/svg">
<path fill-rule="evenodd" clip-rule="evenodd" d="M16.1332 25.33C18.7256 24.2561 21.5782 23.9752 24.3303 24.5226C27.0824 25.07 29.6104 26.4213 31.5946 28.4054C33.5787 30.3896 34.93 32.9176 35.4774 35.6697C36.0248 38.4218 35.7439 41.2744 34.67 43.8668C33.5962 46.4593 31.7778 48.675 29.4446 50.234C27.1115 51.7929 24.3685 52.625 21.5625 52.625H4.68749C3.83811 52.625 3.08138 52.0885 2.80023 51.287C2.52081 50.4904 2.77173 49.6048 3.42594 49.0731C3.42773 49.0716 3.43112 49.0687 3.43605 49.0645C3.4518 49.0509 3.48318 49.0234 3.528 48.9818C3.61773 48.8985 3.76081 48.759 3.94003 48.5619C4.29876 48.1673 4.79951 47.5446 5.30737 46.6813C6.31628 44.9661 7.37499 42.2661 7.37499 38.4375C7.37499 35.6315 8.20707 32.8885 9.76602 30.5554C11.325 28.2222 13.5407 26.4038 16.1332 25.33ZM3.43501 49.0657C3.43551 49.0653 3.436 49.0649 3.4365 49.0646C3.43649 49.0646 3.43649 49.0646 3.43648 49.0646L3.43501 49.0657ZM8.8044 48.625H21.5625C23.5774 48.625 25.547 48.0275 27.2224 46.9081C28.8977 45.7887 30.2034 44.1976 30.9745 42.3361C31.7456 40.4746 31.9473 38.4262 31.5542 36.45C31.1612 34.4738 30.1909 32.6586 28.7661 31.2339C27.3414 29.8091 25.5262 28.8388 23.55 28.4458C21.5738 28.0527 19.5254 28.2544 17.6639 29.0255C15.8024 29.7966 14.2113 31.1023 13.0919 32.7776C11.9725 34.453 11.375 36.4226 11.375 38.4375C11.375 42.9897 10.1214 46.3563 8.8044 48.625Z" fill="#A366E2"/>
<path fill-rule="evenodd" clip-rule="evenodd" d="M38.6407 16.4637C34.0572 20.5672 30.1654 25.4376 27.9504 28.4254C27.2926 29.3128 26.04 29.4988 25.1527 28.841C24.2654 28.1833 24.0793 26.9307 24.7371 26.0433C27.0221 22.9609 31.099 17.8468 35.9726 13.4836C40.756 9.20105 46.7156 5.26562 52.7344 5.26562C53.8389 5.26562 54.7344 6.16106 54.7344 7.26562C54.7344 13.2844 50.799 19.244 46.5164 24.0274C42.1532 28.901 37.0391 32.9779 33.9567 35.2629C33.0693 35.9207 31.8168 35.7346 31.159 34.8473C30.5012 33.96 30.6872 32.7074 31.5746 32.0496C34.5625 29.8346 39.4328 25.9428 43.5363 21.3593C47.0295 17.4575 49.707 13.3383 50.4961 9.50394C46.6617 10.293 42.5425 12.9705 38.6407 16.4637Z" fill="#A366E2"/>
<path fill-rule="evenodd" clip-rule="evenodd" d="M29.4301 20.2514C29.973 19.2894 31.1929 18.9497 32.1548 19.4926C35.6479 21.4639 38.536 24.3521 40.5074 27.8451C41.0503 28.8071 40.7105 30.027 39.7486 30.5699C38.7866 31.1128 37.5667 30.773 37.0238 29.8111C35.4107 26.9527 33.0473 24.5893 30.1889 22.9761C29.2269 22.4332 28.8872 21.2133 29.4301 20.2514Z" fill="#A366E2"/>
</svg>
