<svg width="60" height="60" viewBox="0 0 60 60" fill="none" xmlns="http://www.w3.org/2000/svg">
<path fill-rule="evenodd" clip-rule="evenodd" d="M39.5 45C39.5 48.0376 41.9624 50.5 45 50.5C48.0376 50.5 50.5 48.0376 50.5 45C50.5 41.9624 48.0376 39.5 45 39.5C41.9624 39.5 39.5 41.9624 39.5 45ZM45 54.5C39.7533 54.5 35.5 50.2467 35.5 45C35.5 39.7533 39.7533 35.5 45 35.5C50.2467 35.5 54.5 39.7533 54.5 45C54.5 50.2467 50.2467 54.5 45 54.5Z" fill="#AF66E2"/>
<path fill-rule="evenodd" clip-rule="evenodd" d="M9.5 45C9.5 48.0376 11.9624 50.5 15 50.5C18.0376 50.5 20.5 48.0376 20.5 45C20.5 41.9624 18.0376 39.5 15 39.5C11.9624 39.5 9.5 41.9624 9.5 45ZM15 54.5C9.75329 54.5 5.5 50.2467 5.5 45C5.5 39.7533 9.75329 35.5 15 35.5C20.2467 35.5 24.5 39.7533 24.5 45C24.5 50.2467 20.2467 54.5 15 54.5Z" fill="#AF66E2"/>
<path fill-rule="evenodd" clip-rule="evenodd" d="M8.58578 8.58574C9.36683 7.80469 10.6332 7.80469 11.4142 8.58574L41.1142 38.2857C41.8953 39.0668 41.8953 40.3331 41.1142 41.1142C40.3332 41.8952 39.0668 41.8952 38.2858 41.1142L8.58579 11.4142C7.80474 10.6331 7.80474 9.36679 8.58578 8.58574Z" fill="#AF66E2"/>
<path fill-rule="evenodd" clip-rule="evenodd" d="M34.7871 25.2404C34.0053 24.4601 34.0042 23.1938 34.7845 22.412L48.5845 8.58702C49.3648 7.80526 50.6312 7.80412 51.4129 8.58446C52.1947 9.3648 52.1958 10.6311 51.4155 11.4129L37.6155 25.2379C36.8351 26.0196 35.5688 26.0208 34.7871 25.2404Z" fill="#AF66E2"/>
<path fill-rule="evenodd" clip-rule="evenodd" d="M18.8858 41.1142C18.1047 40.3331 18.1047 39.0668 18.8858 38.2857L28.5858 28.5857C29.3668 27.8047 30.6332 27.8047 31.4142 28.5857C32.1953 29.3668 32.1953 30.6331 31.4142 31.4142L21.7142 41.1142C20.9332 41.8952 19.6668 41.8952 18.8858 41.1142Z" fill="#AF66E2"/>
</svg>
