<svg width="51" height="50" viewBox="0 0 51 50" fill="none" xmlns="http://www.w3.org/2000/svg">
<ellipse cx="25.5" cy="25" rx="22.3125" ry="21.875" fill="url(#paint0_linear_201_166)"/>
<path d="M29.3996 13.5219C29.8818 12.6967 29.5936 11.6426 28.7557 11.1676C27.9178 10.6926 26.8477 10.9766 26.3654 11.8019L25.5243 13.2413L24.6832 11.8019C24.201 10.9766 23.1308 10.6926 22.2929 11.1676C21.4551 11.6426 21.1668 12.6967 21.649 13.5219L23.5047 16.6975L17.6352 26.742H12.9067C11.9399 26.742 11.1562 27.5139 11.1562 28.4661C11.1562 29.4183 11.9399 30.1902 12.9067 30.1902H29.3767C29.5211 29.8165 29.6731 29.1752 29.5114 28.5858C29.2683 27.6999 28.3687 26.742 26.8614 26.742H21.6745L29.3996 13.5219Z" fill="white"/>
<path d="M18.5455 32.0967C18.2469 31.7701 17.5777 31.248 16.991 31.0762C16.0963 30.8142 15.4181 30.9786 15.076 31.1218L13.7721 33.3531C13.2899 34.1783 13.5782 35.2324 14.416 35.7074C15.2539 36.1824 16.324 35.8984 16.8063 35.0731L18.5455 32.0967Z" fill="white"/>
<path d="M35.4283 30.1902H38.0933C39.0601 30.1902 39.8438 29.4183 39.8438 28.4661C39.8438 27.5139 39.0601 26.742 38.0933 26.742H33.4134L28.1417 17.7204C27.7501 18.087 26.9992 19.0234 26.8857 20.0851C26.7399 21.45 26.9587 22.5994 27.6151 23.7248C29.8219 27.5087 32.0322 31.291 34.2423 35.0731C34.7246 35.8984 35.7947 36.1824 36.6326 35.7074C37.4705 35.2324 37.7588 34.1783 37.2765 33.3531L35.4283 30.1902Z" fill="white"/>
<defs>
<linearGradient id="paint0_linear_201_166" x1="25.5" y1="3.125" x2="25.5" y2="46.875" gradientUnits="userSpaceOnUse">
<stop stop-color="#2AC9FA"/>
<stop offset="1" stop-color="#1F65EB"/>
</linearGradient>
</defs>
</svg>
