<svg width="60" height="60" viewBox="0 0 60 60" fill="none" xmlns="http://www.w3.org/2000/svg">
<circle cx="30" cy="30" r="26.25" fill="url(#paint0_linear_201_775)"/>
<path d="M34.5878 16.2263C35.1551 15.236 34.8159 13.9711 33.8302 13.4011C32.8445 12.8312 31.5855 13.1719 31.0182 14.1622L30.0286 15.8895L29.039 14.1622C28.4717 13.1719 27.2127 12.8312 26.227 13.4011C25.2413 13.9711 24.9021 15.236 25.4694 16.2263L27.6525 20.037L20.7473 32.0904H15.1843C14.047 32.0904 13.125 33.0167 13.125 34.1593C13.125 35.302 14.047 36.2283 15.1843 36.2283H34.5608C34.7307 35.7798 34.9095 35.0103 34.7193 34.303C34.4333 33.2398 33.375 32.0904 31.6017 32.0904H25.4994L34.5878 16.2263Z" fill="white"/>
<path d="M21.8183 38.5161C21.4669 38.1241 20.6797 37.4976 19.9894 37.2915C18.9369 36.9771 18.139 37.1743 17.7364 37.3461L16.2025 40.0237C15.6351 41.014 15.9743 42.2789 16.96 42.8489C17.9458 43.4188 19.2048 43.0781 19.7721 42.0878L21.8183 38.5161Z" fill="white"/>
<path d="M41.6804 36.2283H44.8157C45.953 36.2283 46.875 35.302 46.875 34.1593C46.875 33.0167 45.953 32.0904 44.8157 32.0904H39.3099L33.1079 21.2645C32.6471 21.7044 31.7638 22.8281 31.6303 24.1021C31.4587 25.74 31.7161 27.1193 32.4883 28.4698C35.0846 33.0105 37.685 37.5492 40.2851 42.0878C40.8524 43.0781 42.1114 43.4188 43.0972 42.8489C44.0829 42.2789 44.4221 41.014 43.8547 40.0237L41.6804 36.2283Z" fill="white"/>
<defs>
<linearGradient id="paint0_linear_201_775" x1="30" y1="3.75" x2="30" y2="56.25" gradientUnits="userSpaceOnUse">
<stop stop-color="#2AC9FA"/>
<stop offset="1" stop-color="#1F65EB"/>
</linearGradient>
</defs>
</svg>
