<svg width="154" height="134" viewBox="0 0 154 134" fill="none" xmlns="http://www.w3.org/2000/svg">
<g clip-path="url(#clip0_201_685)">
<path d="M120.578 3.36285C124.024 6.49166 124.642 11.3944 124.642 11.3944C124.642 11.3944 119.675 11.2311 116.229 8.10231C112.783 4.97351 112.165 0.0708008 112.165 0.0708008C112.165 0.0708008 117.132 0.234043 120.578 3.36285Z" fill="#698CD5"/>
<path d="M96.3451 118.568C93.3803 122.356 93.1998 126.823 93.2381 126.839C93.2271 126.894 99.4631 125.163 102.264 120.984C105.064 116.86 103.702 112.588 103.741 112.599C103.724 112.643 99.3099 114.819 96.3451 118.568Z" fill="#698CD5"/>
<path d="M100.716 131.677C95.2401 130.752 93.1998 126.632 93.1998 126.671C93.2654 126.692 99.1294 125.006 104.184 125.599C109.287 126.219 112.285 129.37 112.285 129.402C112.362 129.424 106.246 132.623 100.716 131.677Z" fill="#698CD5"/>
<path d="M107.165 113.84C105.125 117.991 105.858 122.334 105.896 122.339C105.89 122.399 111.371 119.689 113.22 115.184C115.075 110.727 112.963 106.82 113.002 106.826C112.996 106.869 109.205 109.721 107.165 113.84Z" fill="#698CD5"/>
<path d="M113.849 125.773C108.527 125.789 105.819 122.154 105.825 122.187C105.885 122.198 111.027 119.597 115.934 119.319C120.889 119.058 124.358 121.604 124.363 121.637C124.434 121.643 119.232 125.767 113.849 125.773Z" fill="#698CD5"/>
<path d="M116.508 107.441C115.348 111.805 116.891 115.875 116.929 115.88C116.929 115.935 121.628 112.398 122.563 107.713C123.515 103.077 120.769 99.6484 120.807 99.6484C120.802 99.692 117.673 103.109 116.508 107.441Z" fill="#698CD5"/>
<path d="M125.162 117.855C120.08 118.769 116.82 115.706 116.831 115.744C116.885 115.744 121.272 112.365 125.944 111.26C130.659 110.167 134.483 112.033 134.494 112.066C134.559 112.06 130.298 116.947 125.162 117.855Z" fill="#698CD5"/>
<path d="M124.308 99.6431C123.986 104.078 126.228 107.762 126.261 107.756C126.272 107.811 130.145 103.572 130.227 98.8596C130.32 94.1909 127.054 91.3287 127.087 91.3232C127.087 91.3613 124.642 95.2356 124.308 99.6431Z" fill="#698CD5"/>
<path d="M134.576 108.257C129.828 110.02 126.13 107.604 126.141 107.637C126.19 107.626 129.8 103.599 134.144 101.716C138.525 99.8336 142.589 100.987 142.6 101.014C142.655 101.004 139.373 106.494 134.576 108.257Z" fill="#698CD5"/>
<path d="M130.495 90.7028C130.954 95.0777 133.793 98.2663 133.826 98.2609C133.843 98.3153 136.868 93.5214 136.135 88.9017C135.424 84.3309 131.742 82.1054 131.775 82.0945C131.786 82.138 130.052 86.3551 130.495 90.7028Z" fill="#698CD5"/>
<path d="M142.01 97.3033C137.694 99.8444 133.673 98.1358 133.684 98.1684C133.728 98.1521 136.529 93.6085 140.451 91.0075C144.411 88.4011 148.585 88.8092 148.596 88.8364C148.656 88.8092 146.38 94.7458 142.01 97.3033Z" fill="#698CD5"/>
<path d="M135.008 80.8865C136.2 85.0873 139.526 87.6937 139.553 87.6828C139.575 87.7318 141.72 82.5189 140.232 78.1277C138.771 73.7746 134.794 72.2456 134.822 72.2292C134.833 72.2673 133.837 76.7184 135.008 80.8865Z" fill="#698CD5"/>
<path d="M147.398 85.3049C143.601 88.548 139.384 87.5903 139.4 87.6175C139.439 87.5958 141.402 82.6658 144.81 79.4228C148.251 76.1688 152.408 75.826 152.425 75.8532C152.474 75.8151 151.238 82.0401 147.398 85.3049Z" fill="#698CD5"/>
<path d="M137.781 70.4662C139.652 74.3786 143.344 76.3429 143.372 76.3266C143.399 76.3701 144.63 70.8797 142.436 66.8205C140.276 62.7938 136.118 61.9939 136.146 61.9722C136.162 62.0103 135.938 66.581 137.781 70.4662Z" fill="#698CD5"/>
<path d="M150.658 72.5992C147.485 76.4571 143.191 76.2667 143.213 76.2885C143.246 76.2613 144.345 71.0756 147.141 67.2721C149.963 63.4576 153.973 62.3748 154 62.3966C154.038 62.3585 153.874 68.714 150.658 72.5992Z" fill="#698CD5"/>
<path d="M138.744 59.7032C141.238 63.2347 145.182 64.508 145.204 64.4862C145.242 64.5297 145.521 58.8925 142.677 55.2685C139.871 51.6717 135.664 51.6119 135.686 51.5901C135.713 51.6227 136.282 56.199 138.744 59.7032Z" fill="#698CD5"/>
<path d="M151.714 59.5073C149.257 63.8821 145.018 64.4535 145.045 64.4753C145.073 64.4426 145.281 59.1372 147.359 54.8712C149.471 50.5888 153.201 48.7931 153.229 48.8149C153.267 48.7768 154.208 55.0997 151.714 59.5073Z" fill="#698CD5"/>
<path d="M137.836 48.8693C140.894 51.9329 144.969 52.4824 144.991 52.4607C145.035 52.4933 144.334 46.8615 140.899 43.7544C137.508 40.6692 133.372 41.3602 133.389 41.333C133.427 41.3602 134.816 45.8276 137.836 48.8693Z" fill="#698CD5"/>
<path d="M150.488 46.3607C148.853 51.1437 144.799 52.466 144.832 52.4823C144.854 52.4442 144.143 47.1497 145.406 42.5354C146.697 37.8939 150.018 35.4398 150.051 35.4507C150.083 35.4018 152.162 41.5397 150.488 46.3607Z" fill="#698CD5"/>
<path d="M134.991 38.237C138.552 40.7564 142.639 40.5768 142.655 40.5496C142.71 40.5768 140.992 35.0864 137.021 32.5725C133.099 30.0803 129.166 31.4897 129.182 31.4624C129.226 31.4842 131.469 35.7285 134.991 38.237Z" fill="#698CD5"/>
<path d="M146.911 33.4812C146.2 38.5471 142.464 40.5822 142.502 40.5931C142.518 40.555 140.855 35.3965 141.211 30.5482C141.588 25.6727 144.351 22.6201 144.384 22.6256C144.411 22.5766 147.655 28.3717 146.911 33.4812Z" fill="#698CD5"/>
<path d="M130.139 28.0669C134.144 29.9769 138.115 29.0736 138.126 29.0464C138.186 29.0681 135.424 23.8553 130.982 22.0106C126.595 20.1769 122.99 22.2718 123.006 22.2392C123.056 22.2555 126.179 26.1624 130.139 28.0669Z" fill="#698CD5"/>
<path d="M140.905 21.1998C141.222 26.4181 137.94 29.1116 137.984 29.1171C137.995 29.0735 135.358 24.1926 134.691 19.2409C134.045 14.2566 136.107 10.6925 136.151 10.6979C136.167 10.6435 140.615 15.938 140.905 21.1998Z" fill="#698CD5"/>
<path d="M123.214 18.6368C127.601 19.8883 131.321 18.2885 131.326 18.2613C131.398 18.2722 127.552 13.4838 122.7 12.3574C117.908 11.231 114.774 13.9572 114.785 13.9245C114.85 13.93 118.882 17.3853 123.214 18.6368Z" fill="#698CD5"/>
<path d="M132.393 9.84903C133.848 15.0728 131.162 18.3594 131.206 18.3594C131.212 18.3159 127.568 13.8376 125.774 8.92399C123.996 3.97231 125.222 8.49725e-05 125.266 8.49725e-05C125.282 -0.0597705 130.965 4.57631 132.393 9.84903Z" fill="#698CD5"/>
<path d="M75.6954 128.21L75.7829 127.253C83.7584 127.971 91.7119 127.09 99.4138 124.625C106.919 122.225 113.871 118.438 120.074 113.372C132.946 102.854 141.244 87.8407 143.443 71.1029C145.242 57.396 144.318 45.1855 140.697 34.8033C136.802 23.6539 129.871 14.9313 120.091 8.87505L120.6 8.05884C130.572 14.2348 137.639 23.1261 141.605 34.4877C145.281 45.0114 146.222 57.3743 144.4 71.2281C142.168 88.2107 133.744 103.441 120.687 114.112C114.391 119.259 107.335 123.101 99.7092 125.539C91.8815 128.042 83.8021 128.94 75.6954 128.21Z" fill="#698CD5"/>
<path d="M33.4224 3.36285C29.9762 6.49166 29.3581 11.3944 29.3581 11.3944C29.3581 11.3944 34.325 11.2311 37.7711 8.10231C41.2173 4.97351 41.8354 0.0708008 41.8354 0.0708008C41.8354 0.0708008 36.8686 0.234043 33.4224 3.36285Z" fill="#698CD5"/>
<path d="M57.655 118.568C60.6198 122.356 60.8003 126.823 60.762 126.839C60.7729 126.894 54.537 125.163 51.7363 120.984C48.9356 116.86 50.2977 112.588 50.2594 112.599C50.2758 112.643 54.6902 114.819 57.655 118.568Z" fill="#698CD5"/>
<path d="M53.2844 131.677C58.7599 130.752 60.8003 126.632 60.8003 126.671C60.7346 126.692 54.8707 125.006 49.8163 125.599C44.7127 126.219 41.7151 129.37 41.7151 129.402C41.6385 129.424 47.7541 132.623 53.2844 131.677Z" fill="#698CD5"/>
<path d="M46.8351 113.84C48.8754 117.991 48.1425 122.334 48.1042 122.339C48.1096 122.399 42.6286 119.689 40.7797 115.184C38.9253 110.727 41.0368 106.82 40.9985 106.826C41.004 106.869 44.7947 109.721 46.8351 113.84Z" fill="#698CD5"/>
<path d="M40.1506 125.773C45.473 125.789 48.1807 122.154 48.1753 122.187C48.1151 122.198 42.9732 119.597 38.0665 119.319C33.1106 119.058 29.6425 121.604 29.6371 121.637C29.566 121.643 34.768 125.767 40.1506 125.773Z" fill="#698CD5"/>
<path d="M37.4922 107.441C38.6518 111.805 37.1093 115.875 37.071 115.88C37.071 115.935 32.3722 112.398 31.4368 107.713C30.485 103.077 33.231 99.6484 33.1927 99.6484C33.1981 99.692 36.327 103.109 37.4922 107.441Z" fill="#698CD5"/>
<path d="M28.833 117.855C33.9147 118.769 37.1749 115.706 37.164 115.744C37.1093 115.744 32.7222 112.365 28.0508 111.26C23.3355 110.167 19.5119 112.033 19.501 112.066C19.4408 112.06 23.702 116.947 28.833 117.855Z" fill="#698CD5"/>
<path d="M29.6918 99.6431C30.0145 104.078 27.7718 107.762 27.739 107.756C27.728 107.811 23.8552 103.572 23.7731 98.8596C23.6801 94.1909 26.9458 91.3287 26.913 91.3232C26.913 91.3613 29.3581 95.2356 29.6918 99.6431Z" fill="#698CD5"/>
<path d="M19.4244 108.257C24.167 110.02 27.8702 107.604 27.8593 107.637C27.81 107.626 24.1998 103.599 19.8565 101.716C15.475 99.8336 11.4107 100.987 11.3997 101.014C11.345 101.004 14.6271 106.494 19.4244 108.257Z" fill="#698CD5"/>
<path d="M23.5051 90.7028C23.0456 95.0777 20.2066 98.2663 20.1738 98.2609C20.1574 98.3153 17.1324 93.5214 17.8654 88.9017C18.5765 84.3309 22.2579 82.1054 22.2251 82.0945C22.2142 82.138 23.9482 86.3551 23.5051 90.7028Z" fill="#698CD5"/>
<path d="M11.985 97.3033C16.301 99.8444 20.3215 98.1358 20.3106 98.1684C20.2668 98.1521 17.4661 93.6085 13.544 91.0075C9.58367 88.4011 5.40997 88.8092 5.39903 88.8364C5.34433 88.8092 7.6199 94.7458 11.985 97.3033Z" fill="#698CD5"/>
<path d="M18.9922 80.8865C17.7998 85.0873 14.4739 87.6937 14.4466 87.6828C14.4247 87.7318 12.2804 82.5189 13.7683 78.1277C15.2288 73.7746 19.2056 72.2456 19.1782 72.2292C19.1673 72.2673 20.1629 76.7184 18.9922 80.8865Z" fill="#698CD5"/>
<path d="M6.60247 85.3049C10.3987 88.548 14.6162 87.5903 14.5998 87.6175C14.5615 87.5958 12.5977 82.6658 9.18983 79.4228C5.74913 76.1688 1.59185 75.826 1.57544 75.8532C1.52621 75.8151 2.76245 82.0401 6.60247 85.3049Z" fill="#698CD5"/>
<path d="M16.2189 70.4662C14.3481 74.3786 10.6558 76.3429 10.6284 76.3266C10.6011 76.3701 9.3703 70.8797 11.5638 66.8205C13.7245 62.7938 17.8818 61.9939 17.8544 61.9722C17.838 62.0103 18.0623 66.581 16.2189 70.4662Z" fill="#698CD5"/>
<path d="M3.34227 72.5992C6.51493 76.4571 10.809 76.2667 10.7871 76.2885C10.7543 76.2613 9.65477 71.0756 6.85955 67.2721C4.03697 63.4576 0.0273799 62.3748 2.93455e-05 62.3966C-0.0382614 62.3585 0.125842 68.714 3.34227 72.5992Z" fill="#698CD5"/>
<path d="M15.2562 59.7032C12.7618 63.2347 8.81788 64.508 8.796 64.4862C8.75771 64.5297 8.47873 58.8925 11.3232 55.2685C14.1294 51.6717 18.3359 51.6119 18.314 51.5901C18.2866 51.6227 17.7177 56.199 15.2562 59.7032Z" fill="#698CD5"/>
<path d="M2.28654 59.5072C4.74262 63.8821 8.98196 64.4535 8.95461 64.4752C8.92726 64.4426 8.71939 59.1372 6.64075 54.8711C4.52929 50.5942 0.798674 48.7985 0.771324 48.8203C0.733033 48.7768 -0.207826 55.0997 2.28654 59.5072Z" fill="#698CD5"/>
<path d="M16.1642 48.8693C13.1064 51.9329 9.03115 52.4824 9.00927 52.4607C8.96551 52.4933 9.66568 46.8615 13.1009 43.7544C16.4924 40.6692 20.6278 41.3602 20.6114 41.333C20.5731 41.3602 19.1837 45.8276 16.1642 48.8693Z" fill="#698CD5"/>
<path d="M3.51183 46.3607C5.1474 51.1437 9.20075 52.466 9.16793 52.4823C9.14605 52.4442 9.85716 47.1497 8.59357 42.5354C7.30262 37.8939 3.98226 35.4398 3.94944 35.4507C3.91662 35.4018 1.83798 41.5397 3.51183 46.3607Z" fill="#698CD5"/>
<path d="M19.0086 38.237C15.4476 40.7564 11.3614 40.5768 11.345 40.5496C11.2903 40.5768 13.0079 35.0864 16.9792 32.5725C20.9013 30.0803 24.8343 31.4897 24.8179 31.4624C24.7741 31.4842 22.5314 35.7285 19.0086 38.237Z" fill="#698CD5"/>
<path d="M7.08929 33.4812C7.8004 38.5471 11.5365 40.5822 11.4982 40.5931C11.4818 40.555 13.1447 35.3965 12.7891 30.5482C12.4117 25.6727 9.6493 22.6201 9.61648 22.6256C9.58913 22.5766 6.34535 28.3717 7.08929 33.4812Z" fill="#698CD5"/>
<path d="M23.8606 28.0669C19.8565 29.9769 15.8852 29.0736 15.8743 29.0464C15.8141 29.0681 18.5765 23.8553 23.0182 22.0106C27.4052 20.1769 31.01 22.2718 30.9936 22.2392C30.9444 22.2555 27.821 26.1624 23.8606 28.0669Z" fill="#698CD5"/>
<path d="M13.0955 21.1998C12.7782 26.4181 16.0603 29.1116 16.0165 29.1171C16.0056 29.0735 18.6421 24.1926 19.3095 19.2409C19.955 14.2566 17.8927 10.6925 17.849 10.6979C17.8326 10.6435 13.3854 15.938 13.0955 21.1998Z" fill="#698CD5"/>
<path d="M30.7858 18.6368C26.3988 19.8883 22.6791 18.2885 22.6736 18.2613C22.6025 18.2722 26.448 13.4838 31.3 12.3574C36.0918 11.231 39.2262 13.9572 39.2153 13.9245C39.1496 13.93 35.1181 17.3853 30.7858 18.6368Z" fill="#698CD5"/>
<path d="M21.6069 9.84903C20.1519 15.0728 22.8377 18.3594 22.794 18.3594C22.7885 18.3159 26.4316 13.8376 28.2258 8.92399C30.0036 3.97231 28.7783 8.49725e-05 28.7345 8.49725e-05C28.7181 -0.0597705 23.0346 4.57631 21.6069 9.84903Z" fill="#698CD5"/>
<path d="M78.3046 128.21L78.2171 127.253C70.2417 127.971 62.2882 127.09 54.5862 124.625C47.0813 122.225 40.1287 118.438 33.9256 113.372C21.0545 102.854 12.7563 87.8407 10.5573 71.1029C8.75766 57.396 9.68211 45.1855 13.3033 34.8033C17.198 23.6539 24.1287 14.9313 33.9092 8.87505L33.4005 8.05884C23.4285 14.2348 16.3611 23.1261 12.3898 34.4877C8.7139 45.0114 7.77304 57.3743 9.59459 71.2281C11.8264 88.2107 20.2504 103.441 33.3075 114.112C39.6036 119.259 46.6601 123.101 54.2854 125.539C62.1186 128.042 70.1979 128.94 78.3046 128.21Z" fill="#698CD5"/>
<path d="M76.7129 123.313L69.4103 128.657L76.7129 134L84.0155 128.657L76.7129 123.313Z" fill="#698CD5"/>
<path d="M45.9665 43.8748C46.633 44.0195 47.1685 44.3588 47.5728 44.8929C47.9772 45.4159 48.1793 46.0167 48.1793 46.6954C48.1793 47.6745 47.8406 48.4534 47.163 49.032C46.4965 49.5994 45.5621 49.8832 44.3601 49.8832H39V38.1669H44.1798C45.349 38.1669 46.2615 38.4395 46.9172 38.9847C47.5838 39.5299 47.9171 40.2698 47.9171 41.2045C47.9171 41.8943 47.7368 42.4673 47.3761 42.9235C47.0264 43.3797 46.5566 43.6968 45.9665 43.8748ZM41.803 42.9068H43.6388C44.0978 42.9068 44.4475 42.8067 44.6879 42.6064C44.9392 42.395 45.0649 42.089 45.0649 41.6885C45.0649 41.2879 44.9392 40.9819 44.6879 40.7705C44.4475 40.5591 44.0978 40.4534 43.6388 40.4534H41.803V42.9068ZM43.8683 47.58C44.3382 47.58 44.6988 47.4743 44.9502 47.2629C45.2124 47.0403 45.3436 46.7232 45.3436 46.3115C45.3436 45.8999 45.207 45.5772 44.9338 45.3435C44.6715 45.1099 44.3054 44.993 43.8355 44.993H41.803V47.58H43.8683Z" fill="#698CD5"/>
<path d="M52.608 40.4534V42.8234H56.3617V45.0264H52.608V47.5967H56.8535V49.8832H49.805V38.1669H56.8535V40.4534H52.608Z" fill="#698CD5"/>
<path d="M62.8367 50C61.9952 50 61.2412 49.8609 60.5746 49.5828C59.908 49.3046 59.3726 48.8929 58.9682 48.3477C58.5748 47.8025 58.3672 47.146 58.3454 46.3783H61.3286C61.3723 46.8122 61.5199 47.146 61.7712 47.3797C62.0225 47.6022 62.3504 47.7135 62.7547 47.7135C63.17 47.7135 63.4978 47.6189 63.7382 47.4298C63.9786 47.2295 64.0988 46.9569 64.0988 46.612C64.0988 46.3227 64.0005 46.0834 63.8038 45.8943C63.618 45.7051 63.3831 45.5494 63.0989 45.427C62.8257 45.3046 62.4323 45.1655 61.9187 45.0097C61.1756 44.7761 60.5692 44.5424 60.0993 44.3088C59.6294 44.0751 59.225 43.7302 58.8863 43.274C58.5475 42.8178 58.3781 42.2225 58.3781 41.4882C58.3781 40.3978 58.7661 39.5466 59.5419 38.9346C60.3178 38.3115 61.3286 38 62.5744 38C63.842 38 64.8638 38.3115 65.6396 38.9346C66.4155 39.5466 66.8308 40.4033 66.8854 41.5049H63.853C63.8311 41.1266 63.6945 40.8317 63.4432 40.6203C63.1918 40.3978 62.8695 40.2865 62.4761 40.2865C62.1373 40.2865 61.8641 40.3811 61.6565 40.5702C61.4488 40.7483 61.345 41.0097 61.345 41.3547C61.345 41.733 61.5199 42.0278 61.8696 42.2392C62.2192 42.4506 62.7656 42.6787 63.5087 42.9235C64.2518 43.1794 64.8528 43.4242 65.3118 43.6579C65.7817 43.8915 66.186 44.2309 66.5248 44.6759C66.8636 45.121 67.0329 45.694 67.0329 46.395C67.0329 47.0626 66.8636 47.669 66.5248 48.2142C66.197 48.7594 65.7161 49.1933 65.0823 49.516C64.4485 49.8387 63.7 50 62.8367 50Z" fill="#698CD5"/>
<path d="M77.0357 38.1669V40.4534H73.9868V49.8832H71.1839V40.4534H68.135V38.1669H77.0357Z" fill="#698CD5"/>
<path d="M89.0792 47.8136H84.7846L84.0961 49.8832H81.162L85.3255 38.1669H88.5711L92.7345 49.8832H89.7676L89.0792 47.8136ZM88.358 45.6106L86.9319 41.3213L85.5222 45.6106H88.358Z" fill="#698CD5"/>
<path d="M102.771 41.9388C102.771 42.6175 102.618 43.2406 102.312 43.8081C102.006 44.3644 101.536 44.815 100.903 45.1599C100.269 45.5049 99.482 45.6773 98.5422 45.6773H96.8047V49.8832H94.0017V38.1669H98.5422C99.4601 38.1669 100.236 38.3282 100.87 38.6509C101.504 38.9736 101.979 39.4186 102.296 39.9861C102.613 40.5535 102.771 41.2045 102.771 41.9388ZM98.3291 43.4075C98.8645 43.4075 99.2634 43.2796 99.5257 43.0236C99.7879 42.7677 99.9191 42.4061 99.9191 41.9388C99.9191 41.4715 99.7879 41.1099 99.5257 40.854C99.2634 40.5981 98.8645 40.4701 98.3291 40.4701H96.8047V43.4075H98.3291Z" fill="#698CD5"/>
<path d="M113 41.9388C113 42.6175 112.847 43.2406 112.541 43.8081C112.235 44.3644 111.765 44.815 111.131 45.1599C110.498 45.5049 109.711 45.6773 108.771 45.6773H107.033V49.8832H104.23V38.1669H108.771C109.689 38.1669 110.465 38.3282 111.099 38.6509C111.732 38.9736 112.208 39.4186 112.525 39.9861C112.842 40.5535 113 41.2045 113 41.9388ZM108.558 43.4075C109.093 43.4075 109.492 43.2796 109.754 43.0236C110.017 42.7677 110.148 42.4061 110.148 41.9388C110.148 41.4715 110.017 41.1099 109.754 40.854C109.492 40.5981 109.093 40.4701 108.558 40.4701H107.033V43.4075H108.558Z" fill="#698CD5"/>
<path d="M41.0609 79.0323C41.7511 78.4993 42.0657 78.2526 42.0048 78.2921C43.9942 76.6931 45.5572 75.3804 46.694 74.354C47.851 73.3275 48.8254 72.2517 49.6171 71.1265C50.4088 70.0013 50.8046 68.9058 50.8046 67.8398C50.8046 67.0305 50.6118 66.3988 50.2261 65.9448C49.8404 65.4908 49.2618 65.2638 48.4905 65.2638C47.7191 65.2638 47.1101 65.55 46.6635 66.1225C46.2372 66.6752 46.0241 67.4648 46.0241 68.4913H41C41.0406 66.8134 41.406 65.4118 42.0962 64.2867C42.8066 63.1615 43.7303 62.3324 44.867 61.7995C46.0241 61.2665 47.303 61 48.7036 61C51.1192 61 52.936 61.6021 54.154 62.8062C55.3923 64.0103 56.0114 65.5796 56.0114 67.5141C56.0114 69.6263 55.2705 71.5904 53.7886 73.4065C52.3068 75.2028 50.4189 76.9596 48.1251 78.677H56.3463V82.7927H41.0609V79.0323Z" fill="#698CD5"/>
<path d="M58.6388 71.9852C58.6388 68.59 59.3087 65.9152 60.6484 63.961C62.0085 62.0067 64.1907 61.0296 67.195 61.0296C70.1993 61.0296 72.3713 62.0067 73.7111 63.961C75.0711 65.9152 75.7512 68.59 75.7512 71.9852C75.7512 75.4199 75.0711 78.1144 73.7111 80.0686C72.3713 82.0229 70.1993 83 67.195 83C64.1907 83 62.0085 82.0229 60.6484 80.0686C59.3087 78.1144 58.6388 75.4199 58.6388 71.9852ZM70.6357 71.9852C70.6357 69.9915 70.4124 68.4616 69.9659 67.3957C69.5193 66.31 68.5956 65.7672 67.195 65.7672C65.7943 65.7672 64.8707 66.31 64.4241 67.3957C63.9775 68.4616 63.7542 69.9915 63.7542 71.9852C63.7542 73.3275 63.8354 74.4428 63.9978 75.3311C64.1602 76.1996 64.485 76.9103 64.9722 77.463C65.4797 77.996 66.2206 78.2625 67.195 78.2625C68.1694 78.2625 68.9001 77.996 69.3873 77.463C69.8948 76.9103 70.2297 76.1996 70.3921 75.3311C70.5545 74.4428 70.6357 73.3275 70.6357 71.9852Z" fill="#698CD5"/>
<path d="M78.3194 79.0323C79.0095 78.4993 79.3242 78.2526 79.2633 78.2921C81.2526 76.6931 82.8157 75.3804 83.9524 74.354C85.1095 73.3275 86.0839 72.2517 86.8755 71.1265C87.6672 70.0013 88.0631 68.9058 88.0631 67.8398C88.0631 67.0305 87.8702 66.3988 87.4845 65.9448C87.0988 65.4908 86.5203 65.2638 85.7489 65.2638C84.9776 65.2638 84.3686 65.55 83.922 66.1225C83.4957 66.6752 83.2826 67.4648 83.2826 68.4913H78.2585C78.2991 66.8134 78.6645 65.4118 79.3546 64.2867C80.0651 63.1615 80.9887 62.3324 82.1255 61.7995C83.2826 61.2665 84.5614 61 85.9621 61C88.3777 61 90.1945 61.6021 91.4125 62.8062C92.6507 64.0103 93.2699 65.5796 93.2699 67.5141C93.2699 69.6263 92.5289 71.5904 91.0471 73.4065C89.5652 75.2028 87.6774 76.9596 85.3835 78.677H93.6048V82.7927H78.3194V79.0323Z" fill="#698CD5"/>
<path d="M95.7146 79.0323C96.4048 78.4993 96.7194 78.2526 96.6585 78.2921C98.6478 76.6931 100.211 75.3804 101.348 74.354C102.505 73.3275 103.479 72.2517 104.271 71.1265C105.062 70.0013 105.458 68.9058 105.458 67.8398C105.458 67.0305 105.265 66.3988 104.88 65.9448C104.494 65.4908 103.916 65.2638 103.144 65.2638C102.373 65.2638 101.764 65.55 101.317 66.1225C100.891 66.6752 100.678 67.4648 100.678 68.4913H95.6537C95.6943 66.8134 96.0597 65.4118 96.7498 64.2867C97.4603 63.1615 98.3839 62.3324 99.5207 61.7995C100.678 61.2665 101.957 61 103.357 61C105.773 61 107.59 61.6021 108.808 62.8062C110.046 64.0103 110.665 65.5796 110.665 67.5141C110.665 69.6263 109.924 71.5904 108.442 73.4065C106.96 75.2028 105.073 76.9596 102.779 78.677H111V82.7927H95.7146V79.0323Z" fill="#698CD5"/>
</g>
<defs>
<clipPath id="clip0_201_685">
<rect width="154" height="134" fill="white"/>
</clipPath>
</defs>
</svg>
