<svg width="170" height="32" viewBox="0 0 170 32" fill="none" xmlns="http://www.w3.org/2000/svg">
<path d="M37 7.33663H43.8428C44.7599 7.33663 45.5986 7.43682 46.3589 7.6372C47.1271 7.83758 47.7855 8.12211 48.3342 8.49081C48.8828 8.85149 49.31 9.28831 49.6157 9.80127C49.9214 10.3142 50.0743 10.8833 50.0743 11.5085C50.0743 11.8932 50.0311 12.2499 49.9449 12.5785C49.8665 12.9071 49.7333 13.2157 49.5452 13.5042C49.3571 13.7928 49.1062 14.0693 48.7927 14.3338C48.487 14.5983 48.1068 14.8668 47.6522 15.1393C48.1225 15.2916 48.5536 15.496 48.9455 15.7525C49.3375 16.0009 49.6745 16.2975 49.9567 16.6421C50.2467 16.9788 50.4701 17.3555 50.6269 17.7723C50.7915 18.181 50.8738 18.6179 50.8738 19.0827C50.8738 19.724 50.7288 20.3211 50.4387 20.8741C50.1566 21.4272 49.749 21.9081 49.216 22.3168C48.6908 22.7256 48.0559 23.0502 47.3113 23.2907C46.5745 23.5231 45.7554 23.6393 44.854 23.6393H37V7.33663ZM40.9152 14.4059H43.4901C43.9055 14.4059 44.2739 14.3418 44.5953 14.2136C44.9245 14.0773 45.1988 13.893 45.4183 13.6605C45.6456 13.4201 45.8181 13.1355 45.9356 12.8069C46.0532 12.4783 46.112 12.1216 46.112 11.7369C46.112 11.3121 46.0375 10.9234 45.8886 10.5707C45.7397 10.2181 45.5124 9.91749 45.2067 9.66902C44.901 9.41254 44.513 9.21617 44.0427 9.07992C43.5724 8.93564 43.0159 8.86351 42.3731 8.86351H40.9152V14.4059ZM40.9152 21.9682H43.0786C43.7135 21.9682 44.2622 21.9 44.7246 21.7638C45.1871 21.6195 45.5672 21.4272 45.8651 21.1867C46.1708 20.9382 46.3942 20.6457 46.5353 20.3091C46.6842 19.9644 46.7587 19.5917 46.7587 19.1909C46.7587 18.7341 46.692 18.3133 46.5588 17.9286C46.4255 17.5358 46.2061 17.1952 45.9004 16.9066C45.6025 16.6181 45.2067 16.3937 44.7129 16.2334C44.2269 16.0731 43.6312 15.9929 42.9257 15.9929H40.9152V21.9682Z" fill="#253556"/>
<path d="M56.3527 7.33663L61.5965 14.6825L66.5229 7.33663H69.1683L62.9369 16.5941V23.6393H59.0217V16.8345L52.2611 7.33663H56.3527Z" fill="#253556"/>
<path d="M71.4022 7.33663H78.245C79.1621 7.33663 80.0008 7.43682 80.7611 7.6372C81.5293 7.83758 82.1877 8.12211 82.7364 8.49081C83.2851 8.85149 83.7122 9.28831 84.0179 9.80127C84.3236 10.3142 84.4765 10.8833 84.4765 11.5085C84.4765 11.8932 84.4334 12.2499 84.3472 12.5785C84.2688 12.9071 84.1355 13.2157 83.9474 13.5042C83.7593 13.7928 83.5085 14.0693 83.1949 14.3338C82.8892 14.5983 82.5091 14.8668 82.0545 15.1393C82.5247 15.2916 82.9559 15.496 83.3478 15.7525C83.7397 16.0009 84.0767 16.2975 84.3589 16.6421C84.6489 16.9788 84.8723 17.3555 85.0291 17.7723C85.1937 18.181 85.276 18.6179 85.276 19.0827C85.276 19.724 85.131 20.3211 84.841 20.8741C84.5588 21.4272 84.1512 21.9081 83.6182 22.3168C83.093 22.7256 82.4581 23.0502 81.7135 23.2907C80.9767 23.5231 80.1576 23.6393 79.2562 23.6393H71.4022V7.33663ZM75.3175 14.4059H77.8923C78.3078 14.4059 78.6762 14.3418 78.9975 14.2136C79.3267 14.0773 79.6011 13.893 79.8205 13.6605C80.0479 13.4201 80.2203 13.1355 80.3379 12.8069C80.4554 12.4783 80.5142 12.1216 80.5142 11.7369C80.5142 11.3121 80.4398 10.9234 80.2908 10.5707C80.1419 10.2181 79.9146 9.91749 79.6089 9.66902C79.3032 9.41254 78.9152 9.21617 78.4449 9.07992C77.9746 8.93564 77.4181 8.86351 76.7754 8.86351H75.3175V14.4059ZM75.3175 21.9682H77.4808C78.1157 21.9682 78.6644 21.9 79.1269 21.7638C79.5893 21.6195 79.9695 21.4272 80.2673 21.1867C80.573 20.9382 80.7964 20.6457 80.9375 20.3091C81.0864 19.9644 81.1609 19.5917 81.1609 19.1909C81.1609 18.7341 81.0943 18.3133 80.961 17.9286C80.8278 17.5358 80.6083 17.1952 80.3026 16.9066C80.0047 16.6181 79.6089 16.3937 79.1151 16.2334C78.6291 16.0731 78.0334 15.9929 77.328 15.9929H75.3175V21.9682Z" fill="#253556"/>
<path d="M100.431 7.33663V8.73126H92.4363V14.1054H99.0792V15.5H92.4363V21.9682H100.431V23.6393H88.521V7.33663H100.431Z" fill="#253556"/>
<path d="M110.566 7L118.044 23.6393H114.046L112.048 19.1909H105.851L103.759 23.6393H101.101L108.873 7H110.566ZM106.592 17.6761H111.389L109.026 12.4102L106.592 17.6761Z" fill="#253556"/>
<path d="M120.29 7.33663H124.205V17.8204C124.205 18.4455 124.299 19.0347 124.487 19.5877C124.683 20.1407 124.957 20.6256 125.31 21.0424C125.671 21.4512 126.102 21.7758 126.603 22.0163C127.113 22.2567 127.685 22.3769 128.32 22.3769C128.939 22.3769 129.5 22.2567 130.001 22.0163C130.503 21.7758 130.93 21.4512 131.283 21.0424C131.636 20.6256 131.906 20.1407 132.094 19.5877C132.29 19.0347 132.388 18.4455 132.388 17.8204V7.33663H134.857V17.8204C134.857 18.662 134.716 19.4595 134.434 20.2129C134.159 20.9583 133.724 21.6115 133.129 22.1726C132.533 22.7336 131.769 23.1785 130.836 23.5071C129.903 23.8357 128.782 24 127.473 24C126.305 24 125.271 23.8357 124.369 23.5071C123.476 23.1785 122.727 22.7336 122.124 22.1726C121.52 21.6035 121.062 20.9422 120.748 20.1888C120.442 19.4354 120.29 18.6339 120.29 17.7843V7.33663Z" fill="#253556"/>
<path d="M152.387 7.33663V8.73126H146.873V23.6393H142.97V8.73126H137.444V7.33663H152.387Z" fill="#253556"/>
<path d="M157.184 7.33663L162.428 14.6825L167.355 7.33663H170L163.769 16.5941V23.6393H159.853V16.8345L153.093 7.33663H157.184Z" fill="#253556"/>
<path d="M1.50002 19.5C1.50002 13.4249 6.42488 8.5 12.5 8.5C18.5751 8.5 23.5 13.4249 23.5 19.5C23.5 25.5751 18.5751 30.5 12.5 30.5L1.50002 30.5L1.50002 19.5Z" stroke="#A366E2" stroke-width="3"/>
<path d="M9 1.5C13.1421 1.5 16.5 4.85786 16.5 9C16.5 13.1421 13.1421 16.5 9 16.5C4.85786 16.5 1.5 13.1421 1.5 9L1.5 1.5L9 1.5Z" stroke="#E56987" stroke-width="3"/>
</svg>
